<?xml version="1.0" encoding="UTF-8"?>
<svg id="Layer_1" data-name="Layer 1" xmlns="http://www.w3.org/2000/svg" xmlns:xlink="http://www.w3.org/1999/xlink" viewBox="0 0 512 512">
  <defs>
    <style>
      .cls-1 {
        letter-spacing: 0em;
      }

      .cls-1, .cls-2 {
        fill: #c05b09;
        font-size: 29px;
      }

      .cls-1, .cls-2, .cls-3, .cls-4, .cls-5 {
        font-weight: 700;
      }

      .cls-1, .cls-2, .cls-3, .cls-5 {
        font-family: MicrosoftNewTaiLue-Bold, 'Microsoft New Tai Lue';
      }

      .cls-6 {
        clip-path: url(#clippath-4);
      }

      .cls-7 {
        fill: none;
      }

      .cls-2 {
        letter-spacing: 0em;
      }

      .cls-8 {
        clip-path: url(#clippath-1);
      }

      .cls-3 {
        fill: #dbb181;
      }

      .cls-3, .cls-4 {
        font-size: 26px;
        letter-spacing: 0em;
      }

      .cls-4 {
        font-family: Lato-Bold, Lato;
      }

      .cls-4, .cls-9 {
        fill: #f5f8f1;
      }

      .cls-10 {
        clip-path: url(#clippath-3);
      }

      .cls-11 {
        fill: #efebe0;
      }

      .cls-12 {
        fill: #f7931e;
      }

      .cls-13 {
        clip-path: url(#clippath-2);
      }

      .cls-5 {
        fill: #1a1a1a;
        font-size: 28px;
        letter-spacing: 0em;
      }

      .cls-14 {
        clip-path: url(#clippath);
      }
    </style>
    <clipPath id="clippath">
      <rect class="cls-9" x="20.18" y="201.19" width="473.22" height="28.12" rx="13.42" ry="13.42"/>
    </clipPath>
    <clipPath id="clippath-1">
      <path class="cls-7" d="M256.73,31.27s-88.91.92-138.64,29.67c-49.73,28.75-74.59,64.49-79.25,73.81-4.66,9.32-13.21,34.96-11.65,43.51s1.55,6.22,10.1,13.21c8.55,6.99,437.44,0,437.44,0,0,0,9.32-3.11,11.65-16.32,2.33-13.21-16.32-48.95-20.98-53.61-4.66-4.66-31.86-44.29-65.27-56.72s-62.26-33.56-143.4-33.56"/>
    </clipPath>
    <clipPath id="clippath-2">
      <rect class="cls-7" x="19.79" y="201.19" width="473.22" height="28.12" rx="13.42" ry="13.42"/>
    </clipPath>
    <clipPath id="clippath-3">
      <rect class="cls-7" x="18.6" y="241.18" width="473.22" height="102.56" rx="32.06" ry="32.06"/>
    </clipPath>
    <clipPath id="clippath-4">
      <path class="cls-7" d="M251.37,480.27c47.4,1.31,106.55.68,155.2-14.26,32.45-10.02,64.1-30.74,74.03-63.32,5.15-14.63,9.59-34.13,1.92-46.64-2.5-3.48-5.97-5.13-9.96-5.95-70.32-5.56-373.24-.32-433.27.93-5.85.77-10.32,6.22-11.47,12.64-2.82,13.87,1.49,29.57,7.59,42.29,7.91,17.68,14.43,29.59,31.8,39.62,20.47,11.49,44.79,17.12,67.56,23.94,32.76,9.67,80.61,10.07,116.47,10.76"/>
    </clipPath>
  </defs>
  <g>
    <rect class="cls-9" x="20.18" y="201.19" width="473.22" height="28.12" rx="13.42" ry="13.42"/>
    <g class="cls-14">
      <text class="cls-4" transform="translate(7.47 150.35)"><tspan x="0" y="0">011001101011000101001111101110110</tspan><tspan x="0" y="25">101101110110011010110001010011111</tspan><tspan x="0" y="50">011101101011011101100110101100010</tspan><tspan x="0" y="75">100111110111011010110111011001101</tspan><tspan x="0" y="100">011000101001111101110110101101110</tspan><tspan x="0" y="125">110011010110001010011111011101101</tspan><tspan x="0" y="150">011011101100110101100010100111110</tspan></text>
    </g>
  </g>
  <path class="cls-12" d="M256.73,31.27s-88.91.92-138.64,29.67S43.5,125.44,38.84,134.76c-4.66,9.32-13.21,34.96-11.65,43.51,1.55,8.55,1.55,6.22,10.1,13.21,8.55,6.99,437.44,0,437.44,0,0,0,9.32-3.11,11.65-16.32,2.33-13.21-16.32-48.95-20.98-53.61-4.66-4.66-31.86-44.29-65.27-56.72s-62.26-33.56-143.4-33.56"/>
  <g class="cls-8">
    <text class="cls-2" transform="translate(12.04 52.74)"><tspan x="0" y="0">01100110101100010100111110111</tspan><tspan x="0" y="25">01101011011101100110101100010</tspan><tspan x="0" y="50">10011111011101101011011101100</tspan><tspan x="0" y="75">11010110001010011111011101101</tspan><tspan x="0" y="100">01101110110011010110001010011</tspan><tspan x="0" y="125">11101110110101101110110011010</tspan><tspan x="0" y="150">11000101001111101110110101101</tspan></text>
  </g>
  <path class="cls-12" d="M250.97,480.27c47.4,1.31,106.55.68,155.2-14.26,32.45-10.02,64.1-30.74,74.03-63.32,5.15-14.63,9.59-34.13,1.92-46.64-2.5-3.48-5.97-5.13-9.96-5.95-70.32-5.56-373.24-.32-433.27.93-5.85.77-10.32,6.22-11.47,12.64-2.82,13.87,1.49,29.57,7.59,42.29,7.91,17.68,14.43,29.59,31.8,39.62,20.47,11.49,44.79,17.12,67.56,23.94,32.76,9.67,80.61,10.07,116.47,10.76"/>
  <rect class="cls-11" x="18.6" y="240.82" width="473.22" height="102.56" rx="32.06" ry="32.06"/>
  <g class="cls-13">
    <text class="cls-3" transform="translate(12.94 224.64)"><tspan x="0" y="0">110011010110001010011111011101101</tspan></text>
  </g>
  <path class="cls-7" d="M252.68,479.88s85.12,5.15,140.24-11.02c71.47-20.98,73.05-52.06,77.71-61.38s13.21-34.96,11.65-43.51c-1.55-8.55-1.55-6.22-10.1-13.21s-437.44,0-437.44,0c0,0-9.32,3.11-11.65,16.32s16.32,48.95,20.98,53.61c4.66,4.66-6.01,16.35,65.48,43.51,43.51,16.53,61.99,15.69,143.13,15.69"/>
  <g class="cls-10">
    <text class="cls-5" transform="translate(13.44 231.57)"><tspan x="0" y="0">011001101011000101001111101110</tspan><tspan x="0" y="26">110101101110110011010110001010</tspan><tspan x="0" y="52">011111011101101011011101100110</tspan><tspan x="0" y="78">101100010100111110111011010110</tspan><tspan x="0" y="104">111011001101011000101001111101</tspan><tspan x="0" y="130">110110101101110110011010110001</tspan><tspan x="0" y="156">010011111011101101011011101100</tspan></text>
  </g>
  <g class="cls-6">
    <text class="cls-1" transform="translate(17.29 364.84)"><tspan x="0" y="0">01100110101100010100111110111</tspan><tspan x="0" y="25">01101011011101100110101100010</tspan><tspan x="0" y="50">10011111011101101011011101100</tspan><tspan x="0" y="75">11010110001010011111011101101</tspan><tspan x="0" y="100">01101110110011010110001010011</tspan><tspan x="0" y="125">11101110110101101110110011010</tspan><tspan x="0" y="150">11000101001111101110110101101</tspan></text>
  </g>
</svg>